<?xml version="1.0" encoding="UTF-8"?>
<svg id="listeningicon" data-name="listeningicon" xmlns="http://www.w3.org/2000/svg" viewBox="0 0 158.17 135.37">
  <defs>
    <style>
      .cls-1 {
        fill: none;
        stroke: #1d1d1b;
        stroke-linecap: round;
        stroke-linejoin: round;
        stroke-width: 10px;
      }
    </style>
  </defs>
  <path class="cls-1" d="M32.11,130.37h0c-14.91,0-27.11-12.2-27.11-27.11v-13.63c0-10.75,8.8-19.55,19.55-19.55h7.55c6.6,0,12,5.4,12,12v36.29c0,6.6-5.4,12-12,12Z"/>
  <path class="cls-1" d="M126.06,70.08h7.55c10.79,0,19.55,8.76,19.55,19.55v13.63c0,14.96-12.15,27.11-27.11,27.11h0c-6.62,0-12-5.38-12-12v-36.29c0-6.62,5.38-12,12-12Z"/>
  <path class="cls-1" d="M133.61,70.08S138.33,5,76.73,5C21.37,5,24.55,70.08,24.55,70.08"/>
</svg>