<?xml version="1.0" encoding="utf-8"?>
<!-- Generator: Adobe Illustrator 27.0.0, SVG Export Plug-In . SVG Version: 6.00 Build 0)  -->
<svg version="1.1" id="readingicon" xmlns="http://www.w3.org/2000/svg" xmlns:xlink="http://www.w3.org/1999/xlink" x="0px" y="0px"
	 viewBox="0 0 200 200" style="enable-background:new 0 0 200 200;" xml:space="preserve">
<style type="text/css">
	.st0{fill:none;stroke:#1D1D1B;stroke-width:10;stroke-miterlimit:10;}
	.st1{fill:none;stroke:#1D1D1B;stroke-width:10;stroke-linecap:round;stroke-linejoin:round;stroke-miterlimit:10;}
</style>
<path class="st0" d="M140.01,41.42v8.43H71.98c-6.6,0-12,5.4-12,12v88.31h-25.5c-6.6,0-12-5.4-12-12V41.42c0-6.6,5.4-12,12-12h93.52
	C134.6,29.42,140.01,34.81,140.01,41.42z"/>
<path class="st0" d="M177.52,61.85v96.74c0,6.6-5.4,12-12,12H71.98c-6.6,0-12-5.4-12-12V61.85c0-6.6,5.4-12,12-12h93.53
	C172.11,49.85,177.52,55.24,177.52,61.85z"/>
<g>
	<line class="st1" x1="84.4" y1="82.54" x2="156.87" y2="82.54"/>
	<line class="st1" x1="84.4" y1="100.99" x2="145.84" y2="100.99"/>
	<line class="st1" x1="84.4" y1="119.44" x2="153.98" y2="119.44"/>
	<line class="st1" x1="84.4" y1="137.89" x2="139.33" y2="137.89"/>
</g>
</svg>
